<?xml version="1.0"?>
<!--Icons from directory ""-->
<svg xmlns="http://www.w3.org/2000/svg" width="47" height="498" viewBox="0 0 47 498"><svg width="21" viewBox="0 0 20.63 19.719" height="20" id="icon-cart" y="0"><defs><style>.cls-1 {        fill: #fff;        fill-rule: evenodd;      }</style></defs><path id="icon-cart-&#x41A;&#x43E;&#x440;&#x437;&#x438;&#x43D;&#x430;" d="m1092.6 33.46l-1.21 8.912a2.025 2.025 0 0 1 -1.88 1.635h-10.88a2.025 2.025 0 0 1 -1.88 -1.635l-1.47-10.287a3.738 3.738 0 0 1 -0.13 -1.055h-2.1a1 1 0 0 1 0 -2h4a0.992 0.992 0 0 1 0.1 1.98h13.97c1.1 0 1.7 1.131 1.5 2.45zm-13.85 8.518-1.31-9h13.2l-0.03 0.2-1.18 8.788a0.033 0.033 0 0 0 -0.01 0.014h-10.67zm0.52 3.009a1.874 1.874 0 1 1 -1.88 1.874 1.874 1.874 0 0 1 1.8 -1.874zm9 0a1.874 1.874 0 1 1 -1.88 1.874 1.874 1.874 0 0 1 1.8 -1.874z" transform="translate(-1072 -29.031)" class="cls-1"/></svg><svg width="20" viewBox="0 0 20 20" height="20" id="icon-checkbox-off" y="20"><defs><style>.cls-1 {        fill: #fff;        fill-rule: evenodd;      }</style></defs><path id="icon-checkbox-off-&#x427;&#x435;&#x440;&#x431;&#x43E;&#x43A;&#x441;_&#x432;&#x44B;&#x43A;&#x43B;." d="m402.15 290.01h11.708a4.16 4.16 0 0 1 4.16 4.16v11.651a4.161 4.161 0 0 1 -4.16 4.161h-11.71a4.161 4.161 0 0 1 -4.161 -4.161v-11.65a4.16 4.16 0 0 1 4.16 -4.16zm-0.15 0.99h12a3 3 0 0 1 3 3v12a3 3 0 0 1 -3 3h-12a3 3 0 0 1 -3 -3v-12a3 3 0 0 1 3 -3z" class="cls-1" transform="translate(-398 -290)" data-name="&#x427;&#x435;&#x440;&#x431;&#x43E;&#x43A;&#x441; &#x432;&#x44B;&#x43A;&#x43B;."/></svg><svg width="20" viewBox="0 0 20 20" height="20" id="icon-checkbox-on" y="40"><defs><style>.cls-1 {        fill: #fff;        fill-rule: evenodd;      }</style></defs><path id="icon-checkbox-on-&#x427;&#x435;&#x440;&#x431;&#x43E;&#x43A;&#x441;_&#x432;&#x43A;&#x43B;._" d="m47.146 290.01h11.708a4.16 4.16 0 0 1 4.161 4.16v11.651a4.161 4.161 0 0 1 -4.161 4.161h-11.708a4.161 4.161 0 0 1 -4.161 -4.161v-11.65a4.16 4.16 0 0 1 4.161 -4.16zm-0.146 0.99h12a3 3 0 0 1 3 3v12a3 3 0 0 1 -3 3h-12a3 3 0 0 1 -3 -3v-12a3 3 0 0 1 3 -3zm12.369 5.955-5.93 5.931l-1.765 1.766-1.765-1.766-3.07-3.07 1.765-1.765 3.07 3.07 5.926-5.93z" class="cls-1" transform="translate(-43 -290)" data-name="&#x427;&#x435;&#x440;&#x431;&#x43E;&#x43A;&#x441; &#x432;&#x43A;&#x43B;. "/></svg><svg width="47" viewBox="0 0 47.406 47.38" height="47" id="icon-cow" y="60"><defs><style>.cls-1 {        fill: #323232;        fill-rule: evenodd;      }</style></defs><path id="icon-cow-&#x41A;&#x43E;&#x440;&#x43E;&#x432;&#x430;" d="m652.58 1395a2.42 2.42 0 0 1 -2.127 1.04 9.366 9.366 0 0 1 -3.256 -0.84 17.086 17.086 0 0 1 -1.576 8.35 5.2 5.2 0 0 1 0.517 3.08c-0.488 3.38-4.283 5.23-8.524 5.23s-8.018-1.85-8.48-5.23a5.164 5.164 0 0 1 0.33 -2.62 17.331 17.331 0 0 1 -1.786 -8.73 8.929 8.929 0 0 1 -3.065 0.76 2.42 2.42 0 0 1 -2.127 -1.04 2.326 2.326 0 0 1 -0.162 -2.22c0.812-1.91 3.593-2.74 4.75-3.01l0.1-0.02c-1.4-2.9-0.723-7.6-0.2-9.19l3.057 0.25c0.056 1 0.766 2.88 3.436 5.01l1.585 1.09a12.914 12.914 0 0 1 2.4 -0.23 12.732 12.732 0 0 1 2.289 0.21l1.692-1.16c2.67-2.13 3.379-4.01 3.435-5.01l3.058-0.26c0.528 1.6 1.207 6.35-0.224 9.24l0.294 0.07c1.157 0.27 3.937 1.1 4.75 3.01a2.326 2.326 0 0 1 -0.18 2.3zm-25.069-3.28s-2.859 0.66-3.362 1.85 3.155-0.14 3.835-0.7a2.317 2.317 0 0 1 -0.47 -1.1zm3.3 0.07c-1.752 2.75-1.578 7 0.467 11.37l0.367 0.78-0.318 0.8a3.209 3.209 0 0 0 -0.208 1.62c0.329 2.41 3.6 3.5 6.5 3.5s6.2-1.1 6.545-3.52a3.177 3.177 0 0 0 -0.33 -1.9l-0.416-0.84 0.378-0.86c1.878-4.25 1.97-8.37 0.244-11.02-1.3-1.99-3.575-3.04-6.587-3.04-3.05 0-5.35 1.1-6.64 3.1zm20.093 1.78c-0.5-1.19-3.361-1.85-3.361-1.85a2.328 2.328 0 0 1 -0.474 1.15c0.67 0.4 4.33 1.8 3.83 0.6zm-18.57-6.1s-3.595-2.48-3.735-5.02c-0.4 2.18-0.584 5.62 0.7 6.99a21 21 0 0 1 3.03 -2zm10.232-0.1s3.595-2.47 3.736-5.01c0.4 2.17 0.584 5.61-0.705 6.98a22.893 22.893 0 0 0 -3.04 -2zm-5.378-15.57a23.7 23.7 0 1 1 -23.7 23.7 23.7 23.7 0 0 1 23.7 -23.7zm0 45.4a21.7 21.7 0 1 1 21.7 -21.7 21.722 21.722 0 0 1 -21.7 21.7z" transform="translate(-613.47 -1371.8)" class="cls-1"/></svg><svg width="20" viewBox="0 0 20.063 19" height="19" id="icon-enter" y="107"><defs><style>.cls-1 {        fill: #fff;        fill-opacity: 0.99;        fill-rule: evenodd;      }</style></defs><path id="icon-enter-&#x412;&#x445;&#x43E;&#x434;" d="m973 32.968v-0.96a3 3 0 0 1 3 -3h11.059a3 3 0 0 1 3 3v12.978a3 3 0 0 1 -3 3h-11.06a3 3 0 0 1 -3 -3v-0.986h2v2h13v-15h-13v1.968h-2zm-3 8.046h6.029v2.743l7.027-5.3-7.027-5.3v2.743h-6.03v5.114z" transform="translate(-970 -29)" class="cls-1"/></svg><svg width="31" viewBox="0 0 31.375 31.41" height="31" id="icon-fb" y="126"><defs><style>.cls-1 {        fill: #fff;        fill-rule: evenodd;        opacity: 0.8;      }</style></defs><path id="icon-fb-&#x424;&#x411;" d="m144.86 2352.2a15.69 15.69 0 1 1 -15.692 15.69 15.687 15.687 0 0 1 15.69 -15.7zm0.773 24.99v-9.29h2.743l0.285-3.09h-3.028v-1.86c0-0.89 0.085-1.26 1.367-1.26h1.764v-3.42h-2.792c-3.294 0-4.082 1.54-4.082 4.34v2.2h-1.889v3.09h1.9v9.29h3.738z" transform="translate(-129.19 -2352.2)" class="cls-1"/></svg><svg width="15" viewBox="0 0 14.562 12.66" height="13" id="icon-heart" y="157"><defs><style>.cls-1 {        fill: #f7f8f8;        fill-rule: evenodd;      }</style></defs><path id="icon-heart-&#x421;&#x435;&#x440;&#x434;&#x446;&#x435;" d="m434.61 2362.7s7.285-3.6 7.285-8.22c0-5.13-5.5-5.94-7.3-1.71m0.049 9.93s-7.285-3.6-7.285-8.22c0-5.13 5.5-5.94 7.3-1.71" transform="translate(-427.34 -2350.1)" class="cls-1"/></svg><svg width="47" viewBox="0 0 47.375 47.38" height="47" id="icon-ice-cream" y="170"><defs><style>.cls-1 {        fill: #323232;        fill-rule: evenodd;      }</style></defs><path id="icon-ice-cream-&#x41C;&#x43E;&#x440;&#x43E;&#x436;&#x435;&#x43D;&#x43A;&#x43E;" d="m77.454 1381.4a8.575 8.575 0 0 0 -14.639 6.06v14.68a0.808 0.808 0 0 0 0.809 0.81h15.533a0.808 0.808 0 0 0 0.809 -0.81v-14.68a8.512 8.512 0 0 0 -2.512 -6.1zm0.894 19.93h-13.915v-10.89c0.045 0.05 0.092 0.1 0.143 0.16a2.619 2.619 0 0 0 4.309 0 1.185 1.185 0 0 1 0.946 -0.6 1 1 0 0 1 0.309 0.43 10.746 10.746 0 0 1 0.488 1.22 9.606 9.606 0 0 0 0.7 1.65 1.753 1.753 0 0 0 3.237 0 9.614 9.614 0 0 0 0.7 -1.65 10.67 10.67 0 0 1 0.488 -1.22 1 1 0 0 1 0.309 -0.43 1.186 1.186 0 0 1 0.946 0.6 3.205 3.205 0 0 0 1.346 1v9.73zm-9.007 8.58a2.049 2.049 0 1 0 4.1 0v-6.16h-4.1v6.16zm2.159-38.1a23.7 23.7 0 1 1 -23.7 23.7 23.7 23.7 0 0 1 23.7 -23.7zm0 45.4a21.7 21.7 0 1 1 21.7 -21.7 21.722 21.722 0 0 1 -21.7 21.7z" transform="translate(-47.813 -1371.8)" class="cls-1"/></svg><svg width="31" viewBox="0 0 31.376 31.41" height="31" id="icon-inst" y="217"><defs><style>.cls-1 {        fill: #fff;        fill-rule: evenodd;        opacity: 0.8;      }</style></defs><path id="icon-inst-&#x418;&#x43D;&#x441;&#x442;&#x430;" d="m95.865 2352.2a15.69 15.69 0 1 1 -15.692 15.69 15.688 15.688 0 0 1 15.692 -15.7zm6.271 23.61a1.745 1.745 0 0 0 1.745 -1.75v-12.31a1.743 1.743 0 0 0 -1.745 -1.74h-12.331a1.743 1.743 0 0 0 -1.745 1.74v12.31a1.745 1.745 0 0 0 1.745 1.75h12.328zm-1.375-9.1a4.921 4.921 0 1 1 -9.529 0h-1.38v6.78a0.609 0.609 0 0 0 0.611 0.61h11.065a0.609 0.609 0 0 0 0.612 -0.61v-6.78h-1.38zm-4.76-1.6a2.848 2.848 0 1 1 0 5.68 2.84 2.84 0 0 1 0 -5.7zm3.7-3.31h1.865a0.608 0.608 0 0 1 0.611 0.61v1.86a0.608 0.608 0 0 1 -0.611 0.61h-1.86a0.609 0.609 0 0 1 -0.611 -0.61v-1.86a0.609 0.609 0 0 1 0.611 -0.6z" transform="translate(-80.188 -2352.2)" class="cls-1"/></svg><svg width="47" viewBox="0 0 47.375 47.38" height="47" id="icon-leaf" y="248"><defs><style>.cls-1 {        fill: #323232;        fill-rule: evenodd;      }</style></defs><path id="icon-leaf-&#x41B;&#x438;&#x441;&#x442;&#x438;&#x43A;" d="m71.437 1499.6s-22.24-10.18 0-32.75c22.24 22.6 0 32.8 0 32.8zm7.516-17.18-6.536 4.16l-0.021 3.68 6.894-4.41a13.37 13.37 0 0 0 -0.337 -3.5zm-15.39 3.19 6.833 4.48v-3.62l-6.453-4.15a13.622 13.622 0 0 0 -0.38 3.2zm6.833-1.52v-3.63l-4.396-3.4a21.756 21.756 0 0 0 -1.464 3.24zm0-6.09v-7.04a39.184 39.184 0 0 0 -3.356 4.42zm2 0.28 3.629-2.6a39.493 39.493 0 0 0 -3.629 -4.82v7.42zm0.021 2.3l-0.021 3.68 5.981-3.85a21.714 21.714 0 0 0 -1.337 -3.01zm6.443 7.9-6.443 4.1l-0.021 4.16a15.3 15.3 0 0 0 6.463 -8.3zm-8.463 8.2v-4.21l-6.417-4.13c1.105 4.1 4.32 6.9 6.42 8.3zm1.1-36.9a23.7 23.7 0 1 1 -23.7 23.7 23.7 23.7 0 0 1 23.703 -23.7zm0 45.4a21.7 21.7 0 1 1 21.7 -21.7 21.722 21.722 0 0 1 -21.697 21.7z" transform="translate(-47.813 -1459.8)" class="cls-1"/></svg><svg width="20" viewBox="0 0 20.25 20.25" height="20" id="icon-radio-off" y="295"><defs><style>.cls-1 {        fill: #f8f7f4;        fill-rule: evenodd;      }</style></defs><path id="icon-radio-off-&#x420;&#x430;&#x434;&#x438;&#x43E;&#x431;&#x430;&#x442;&#x442;&#x43E;&#x43D;_&#x432;&#x44B;&#x43A;&#x43B;." d="m494.84 215.88a10.115 10.115 0 1 1 -10.12 10.12 10.115 10.115 0 0 1 10.12 -10.12zm0 1.248a8.867 8.867 0 1 1 -8.87 8.87 8.867 8.867 0 0 1 8.87 -8.87z" class="cls-1" transform="translate(-484.72 -215.88)" data-name="&#x420;&#x430;&#x434;&#x438;&#x43E;&#x431;&#x430;&#x442;&#x442;&#x43E;&#x43D; &#x432;&#x44B;&#x43A;&#x43B;."/></svg><svg width="20" viewBox="0 0 20.25 20.25" height="20" id="icon-radio-on" y="315"><defs><style>.cls-1 {        fill: #f8f7f4;        fill-rule: evenodd;      }</style></defs><path id="icon-radio-on-&#x420;&#x430;&#x434;&#x438;&#x43E;&#x431;&#x430;&#x442;&#x442;&#x43E;&#x43D;_&#x432;&#x43A;&#x43B;." d="m564.84 215.88a10.115 10.115 0 1 1 -10.12 10.12 10.115 10.115 0 0 1 10.12 -10.12zm0 1.248a8.867 8.867 0 1 1 -8.87 8.87 8.867 8.867 0 0 1 8.87 -8.87zm0 3.476a5.391 5.391 0 1 1 -5.39 5.39 5.391 5.391 0 0 1 5.39 -5.39z" class="cls-1" transform="translate(-554.72 -215.88)" data-name="&#x420;&#x430;&#x434;&#x438;&#x43E;&#x431;&#x430;&#x442;&#x442;&#x43E;&#x43D; &#x432;&#x43A;&#x43B;."/></svg><svg xmlns:xlink="http://www.w3.org/1999/xlink" viewBox="0 0 32 37" width="32" height="37" id="icon-rubble" y="335"><defs><style>.cls-1 {        fill: #fff;        fill-rule: evenodd;        filter: url(#icon-rubble-filter);      }</style><filter id="icon-rubble-filter" height="37" width="32" y="1131" x="107" filterUnits="userSpaceOnUse"><feOffset in="SourceAlpha" result="offset" dx="0.5" dy="0.866"/><feGaussianBlur stdDeviation="1.732" result="blur"/><feFlood flood-opacity=".5" result="flood" flood-color="#313235"/><feComposite operator="in" result="composite" in2="blur"/><feBlend result="blend" in="SourceGraphic"/></filter></defs><path id="icon-rubble-&#x420;" d="m108.64 1146.6h3.682v-14.49h8.889a32.467 32.467 0 0 1 7.253 0.5c3.637 0.95 6.409 4.22 6.409 9.31 0 5.82-3.727 8.87-7.091 9.59a30.542 30.542 0 0 1 -6.253 0.46h-3.039v2.73h15.02v5.36h-15.02v3.9h-6.168v-3.91h-3.682v-5.36h3.682v-2.7h-3.682v-5.37zm9.85-9.09v9.05h2.358a13.828 13.828 0 0 0 4.662 -0.5 4.351 4.351 0 0 0 -0.864 -8.32 24.484 24.484 0 0 0 -4.208 -0.23h-1.948z" transform="translate(-107 -1131)" class="cls-1"/></svg><svg width="17" viewBox="0 0 16.687 16.688" height="17" id="icon-search" y="372"><defs><style>.cls-1 {        fill: #fff;        fill-rule: evenodd;      }</style></defs><path id="icon-search-&#x41B;&#x443;&#x43F;&#x430;" d="m931.16 40.747h-0.76l-0.264-0.261a6.212 6.212 0 1 0 -0.675 0.675l0.263 0.262v0.755l4.773 4.76 1.423-1.422zm-5.731 0a4.291 4.291 0 1 1 4.3 -4.291 4.294 4.294 0 0 1 -4.31 4.291z" transform="translate(-919.22 -30.25)" class="cls-1"/></svg><svg width="47" viewBox="0 0 47.406 47.38" height="47" id="icon-thermometer" y="389"><defs><style>.cls-1 {        fill: #323232;        fill-rule: evenodd;      }</style></defs><path id="icon-thermometer-&#x413;&#x440;&#x430;&#x434;&#x443;&#x441;&#x43D;&#x438;&#x43A;" d="m637.02 1498.3a6.814 6.814 0 0 1 -6.823 -6.77 8.038 8.038 0 0 1 1.822 -4.6v-14.84a5 5 0 0 1 10 0v14.91a7.629 7.629 0 0 1 1.778 4.53 6.775 6.775 0 0 1 -6.78 6.8zm0-2a4.8 4.8 0 0 1 -4.8 -4.77 5.237 5.237 0 0 1 1.845 -3.78v-15.66a3 3 0 0 1 6 0v15.72a5.092 5.092 0 0 1 1.754 3.72 4.8 4.8 0 0 1 -4.79 4.8zm2.706-4.91a2.774 2.774 0 1 1 -3.675 -2.61v-16.84a0.949 0.949 0 0 1 1.9 0v16.87a2.765 2.765 0 0 1 1.77 2.5zm5.27-16.4h4a1 1 0 0 1 0 2h-4a1 1 0 0 1 0 -2zm0-4h4a1 1 0 0 1 0 2h-4a1 1 0 0 1 0 -2zm0 8h4a1 1 0 0 1 0 2h-4a1 1 0 0 1 0 -2zm0 4h4a1 1 0 0 1 0 2h-4a1 1 0 0 1 0 -2zm-7.817-23.2a23.7 23.7 0 1 1 -23.7 23.7 23.7 23.7 0 0 1 23.7 -23.7zm0 45.4a21.7 21.7 0 1 1 21.7 -21.7 21.722 21.722 0 0 1 -21.7 21.7z" transform="translate(-613.47 -1459.8)" class="cls-1"/></svg><svg width="31" viewBox="0 0 31.375 31.4" height="31" id="icon-tw" y="436"><defs><style>.cls-1 {        fill: #fff;        fill-rule: evenodd;        opacity: 0.8;      }</style></defs><path id="icon-tw-&#x422;&#x432;&#x438;&#x442;&#x435;&#x440;" d="m46.427 2352.2a15.69 15.69 0 1 1 -15.692 15.69 15.688 15.688 0 0 1 15.692 -15.7zm9.138 10.81a7.331 7.331 0 0 1 -2.092 0.57 3.663 3.663 0 0 0 1.6 -2.02 7.4 7.4 0 0 1 -2.313 0.89 3.645 3.645 0 0 0 -6.207 3.32 10.316 10.316 0 0 1 -7.507 -3.81 3.655 3.655 0 0 0 1.127 4.87 3.68 3.68 0 0 1 -1.65 -0.46v0.05a3.651 3.651 0 0 0 2.922 3.57 3.789 3.789 0 0 1 -0.96 0.13 3.861 3.861 0 0 1 -0.685 -0.07 3.643 3.643 0 0 0 3.4 2.53 7.29 7.29 0 0 1 -4.524 1.56 8.291 8.291 0 0 1 -0.869 -0.05 10.354 10.354 0 0 0 15.946 -8.73c0-0.16 0-0.31-0.011-0.47a7.33 7.33 0 0 0 1.823 -1.8z" transform="translate(-30.75 -2352.2)" class="cls-1"/></svg><svg width="31" viewBox="0 0 31.375 31.41" height="31" id="icon-vk" y="467"><defs><style>.cls-1 {        fill: #fff;        fill-rule: evenodd;        opacity: 0.8;      }</style></defs><path id="icon-vk-&#x412;&#x41A;" d="m193.86 2352.2a15.69 15.69 0 1 1 -15.692 15.69 15.687 15.687 0 0 1 15.69 -15.7zm5.967 18.25a3.1 3.1 0 0 0 -0.757 -2.2 3.7 3.7 0 0 0 -2.016 -1.09v-0.07a2.881 2.881 0 0 0 1.371 -1.14 3.211 3.211 0 0 0 0.5 -1.77 3.133 3.133 0 0 0 -0.362 -1.52 2.6 2.6 0 0 0 -1.091 -1.05 4.522 4.522 0 0 0 -1.446 -0.48 17.993 17.993 0 0 0 -2.269 -0.11h-4.8v13.59h5.44a8.909 8.909 0 0 0 2.332 -0.25 4.783 4.783 0 0 0 1.686 -0.86 3.684 3.684 0 0 0 1.032 -1.27 3.909 3.909 0 0 0 0.383 -1.78zm-4.372-5.59a1.517 1.517 0 0 0 -0.169 -0.67 1 1 0 0 0 -0.527 -0.5 2.111 2.111 0 0 0 -0.8 -0.17c-0.308 0-0.766-0.01-1.374-0.01h-0.237v2.88h0.43c0.583 0 0.994-0.01 1.228-0.02a2.044 2.044 0 0 0 0.727 -0.19 1.129 1.129 0 0 0 0.563 -0.53 1.9 1.9 0 0 0 0.157 -0.79zm0.856 5.53a1.673 1.673 0 0 0 -0.255 -0.99 1.533 1.533 0 0 0 -0.767 -0.54 2.658 2.658 0 0 0 -0.853 -0.13c-0.362-0.01-0.849-0.01-1.456-0.01h-0.63v3.4h0.184c0.888 0 1.5-0.01 1.842-0.02a2.867 2.867 0 0 0 1.041 -0.24 1.381 1.381 0 0 0 0.68 -0.59 1.813 1.813 0 0 0 0.23 -0.8z" transform="translate(-178.19 -2352.2)" class="cls-1"/></svg></svg>
